<svg width="135" height="23" viewBox="0 0 135 23" fill="none" xmlns="http://www.w3.org/2000/svg">
<path d="M6.7 12.1L4.69 7.9H4.6V22H0.31V1.06H5.29L11.02 10.96L13.03 15.16H13.12V1.06H17.41V22H12.43L6.7 12.1ZM38.0861 22.36C36.2461 22.36 34.6861 22.05 33.4061 21.43C32.1261 20.79 31.0361 19.97 30.1361 18.97L33.1361 15.94C34.5561 17.54 36.3061 18.34 38.3861 18.34C39.5061 18.34 40.3361 18.11 40.8761 17.65C41.4161 17.19 41.6861 16.58 41.6861 15.82C41.6861 15.24 41.5261 14.76 41.2061 14.38C40.8861 13.98 40.2361 13.71 39.2561 13.57L37.1861 13.3C34.9661 13.02 33.3361 12.35 32.2961 11.29C31.2761 10.23 30.7661 8.82 30.7661 7.06C30.7661 6.12 30.9461 5.26 31.3061 4.48C31.6661 3.7 32.1761 3.03 32.8361 2.47C33.5161 1.91 34.3361 1.48 35.2961 1.18C36.2761 0.859999 37.3861 0.699999 38.6261 0.699999C40.2061 0.699999 41.5961 0.949999 42.7961 1.45C43.9961 1.95 45.0261 2.68 45.8861 3.64L42.8561 6.7C42.3561 6.12 41.7461 5.65 41.0261 5.29C40.3261 4.91 39.4361 4.72 38.3561 4.72C37.3361 4.72 36.5761 4.9 36.0761 5.26C35.5761 5.62 35.3261 6.12 35.3261 6.76C35.3261 7.48 35.5161 8 35.8961 8.32C36.2961 8.64 36.9361 8.87 37.8161 9.01L39.8861 9.34C42.0461 9.68 43.6461 10.35 44.6861 11.35C45.7261 12.33 46.2461 13.73 46.2461 15.55C46.2461 16.55 46.0661 17.47 45.7061 18.31C45.3461 19.15 44.8161 19.87 44.1161 20.47C43.4361 21.07 42.5861 21.54 41.5661 21.88C40.5461 22.2 39.3861 22.36 38.0861 22.36ZM50.0268 22V1.06H64.2768V5.11H54.5868V9.4H62.8968V13.42H54.5868V17.95H64.2768V22H50.0268ZM68.2495 22V1.06H72.8095V17.95H80.7895V22H68.2495ZM84.1577 22V1.06H88.7177V17.95H96.6977V22H84.1577ZM100.066 22V1.06H114.316V5.11H104.626V9.4H112.936V13.42H104.626V17.95H114.316V22H100.066ZM122.849 22H118.289V1.06H128.219C129.179 1.06 130.049 1.22 130.829 1.54C131.609 1.86 132.269 2.32 132.809 2.92C133.369 3.5 133.799 4.2 134.099 5.02C134.399 5.84 134.549 6.75 134.549 7.75C134.549 9.17 134.229 10.41 133.589 11.47C132.969 12.53 132.019 13.3 130.739 13.78L134.849 22H129.779L126.119 14.32H122.849V22ZM127.649 10.48C128.329 10.48 128.859 10.31 129.239 9.97C129.639 9.61 129.839 9.09 129.839 8.41V7.09C129.839 6.41 129.639 5.9 129.239 5.56C128.859 5.2 128.329 5.02 127.649 5.02H122.849V10.48H127.649Z" fill="white"/>
<path d="M24.359 22.33C23.459 22.33 22.789 22.11 22.349 21.67C21.929 21.21 21.719 20.63 21.719 19.93V19.33C21.719 18.63 21.929 18.06 22.349 17.62C22.789 17.16 23.459 16.93 24.359 16.93C25.259 16.93 25.919 17.16 26.339 17.62C26.779 18.06 26.999 18.63 26.999 19.33V19.93C26.999 20.63 26.779 21.21 26.339 21.67C25.919 22.11 25.259 22.33 24.359 22.33Z" fill="#009661"/>
</svg>
