<svg width="201" height="403" viewBox="0 0 201 403" fill="none" xmlns="http://www.w3.org/2000/svg">
<rect x="6.59104" y="5.17868" width="186.905" height="392.643" rx="24.0105" stroke="#AFAFAF" stroke-width="10.3575"/>
<path d="M198.676 91.8047H199.382C199.772 91.8047 200.088 92.1209 200.088 92.5109V136.295C200.088 136.685 199.772 137.001 199.382 137.001H198.676V91.8047Z" fill="#AFAFAF"/>
<path d="M1.41296 82.8594H0.706772C0.316753 82.8594 0.000580668 83.1755 0.000580668 83.5656V109.459C0.000580668 109.849 0.316753 110.165 0.706772 110.165H1.41296V82.8594Z" fill="#AFAFAF"/>
<path d="M1.41296 119.111H0.706772C0.316753 119.111 0.000580668 119.428 0.000580668 119.818V145.711C0.000580668 146.101 0.316753 146.417 0.706772 146.417H1.41296V119.111Z" fill="#AFAFAF"/>
<path d="M1.41296 54.1406H0.706772C0.316753 54.1406 0.000580668 54.4568 0.000580668 54.8468V67.0875C0.000580668 67.4775 0.316753 67.7937 0.706772 67.7937H1.41296V54.1406Z" fill="#AFAFAF"/>
<g clip-path="url(#clip0_984_9007)">
<rect x="11.7698" y="10.3574" width="176.548" height="382.285" rx="18.8318" fill="#1E1E20"/>
<g clip-path="url(#clip1_984_9007)">
<rect width="176.548" height="382.285" transform="translate(11.7698 10.3574)" fill="#1E1E20"/>
<rect width="176.548" height="382.285" transform="translate(11.7698 10.3574)" fill="#141416"/>
<g opacity="0.4">
<rect x="128.733" y="126.227" width="47.8151" height="58.6617" rx="3.76636" fill="#464648"/>
<rect x="128.733" y="62.6152" width="47.8151" height="58.6617" rx="3.76636" fill="#464648"/>
<rect opacity="0.8" x="128.733" y="189.828" width="47.8151" height="58.6617" rx="3.76636" fill="#464648"/>
<rect opacity="0.6" x="128.733" y="253.43" width="47.8151" height="58.6617" rx="3.76636" fill="#464648"/>
<rect opacity="0.4" x="128.733" y="317.031" width="47.8151" height="58.6617" rx="3.76636" fill="#464648"/>
<rect x="76.135" y="126.227" width="47.8151" height="58.6617" rx="3.76636" fill="#464648"/>
<rect x="76.135" y="62.6152" width="47.8151" height="58.6617" rx="3.76636" fill="#464648"/>
<rect opacity="0.8" x="76.135" y="189.828" width="47.8151" height="58.6617" rx="3.76636" fill="#464648"/>
<rect opacity="0.6" x="76.135" y="253.43" width="47.8151" height="58.6617" rx="3.76636" fill="#464648"/>
<rect opacity="0.4" x="76.135" y="317.031" width="47.8151" height="58.6617" rx="3.76636" fill="#464648"/>
<path d="M23.5389 129.993C23.5389 127.913 25.2252 126.227 27.3053 126.227H67.5876C69.6677 126.227 71.354 127.913 71.354 129.993V181.122C71.354 183.202 69.6677 184.888 67.5876 184.888H27.3053C25.2252 184.888 23.5389 183.202 23.5389 181.122V129.993Z" fill="#464648"/>
<path d="M23.5389 66.3816C23.5389 64.3015 25.2252 62.6152 27.3053 62.6152H67.5876C69.6677 62.6152 71.354 64.3015 71.354 66.3816V117.511C71.354 119.591 69.6677 121.277 67.5876 121.277H27.3053C25.2252 121.277 23.5389 119.591 23.5389 117.511V66.3816Z" fill="#464648"/>
<rect opacity="0.8" x="23.5389" y="189.828" width="47.8151" height="58.6617" rx="3.76636" fill="#464648"/>
<rect opacity="0.6" x="23.5389" y="253.43" width="47.8151" height="58.6617" rx="3.76636" fill="#464648"/>
<rect opacity="0.4" x="23.5389" y="317.031" width="47.8151" height="58.6617" rx="3.76636" fill="#464648"/>
</g>
<rect x="16.9485" y="297.07" width="162.895" height="81.9182" fill="url(#paint0_linear_984_9007)"/>
<path d="M33.2147 37.9515H31.5905L28.8481 43.5775L26.1057 37.9515H24.4815V46.4258H26.1057V41.3765L28.5656 46.4258H29.1306L31.5905 41.3647V46.4258H33.2147V37.9515ZM37.8388 46.6023C38.7922 46.6023 39.6749 46.2492 40.2752 45.543C40.8166 44.8722 41.0638 44.1542 41.0638 43.2479C41.0638 42.3887 40.8401 41.6237 40.2752 40.9528C39.6867 40.2466 38.7804 39.8935 37.8388 39.8935C36.909 39.8935 35.991 40.2584 35.4025 40.9528C34.8964 41.5648 34.6257 42.3534 34.6257 43.2479C34.6257 44.1189 34.8611 44.8839 35.4025 45.543C35.991 46.2375 36.8972 46.6023 37.8388 46.6023ZM39.004 44.5661C38.7451 44.9192 38.3096 45.1076 37.8388 45.1076C37.368 45.1076 36.9325 44.9192 36.6736 44.5661C36.4029 44.213 36.3205 43.7305 36.3205 43.2479C36.3205 42.7654 36.4029 42.271 36.6736 41.9179C36.9325 41.5648 37.368 41.3883 37.8388 41.3883C38.3096 41.3883 38.7451 41.5648 39.004 41.9179C39.2747 42.271 39.3689 42.7654 39.3689 43.2479C39.3689 43.7305 39.2747 44.213 39.004 44.5661ZM48.222 40.0701H46.8097L43.9849 43.7658V40.0701H42.3607V46.4258H43.773L46.5978 42.6006V46.4258H48.222V40.0701ZM55.0853 46.6023C56.0387 46.6023 56.9214 46.2492 57.5217 45.543C58.0631 44.8722 58.3103 44.1542 58.3103 43.2479C58.3103 42.3887 58.0867 41.6237 57.5217 40.9528C56.9332 40.2466 56.0269 39.8935 55.0853 39.8935C54.1555 39.8935 53.2375 40.2584 52.649 40.9528C52.1429 41.5648 51.8722 42.3534 51.8722 43.2479C51.8722 44.1189 52.1076 44.8839 52.649 45.543C53.2375 46.2375 54.1438 46.6023 55.0853 46.6023ZM56.2506 44.5661C55.9916 44.9192 55.5561 45.1076 55.0853 45.1076C54.6146 45.1076 54.1791 44.9192 53.9201 44.5661C53.6494 44.213 53.567 43.7305 53.567 43.2479C53.567 42.7654 53.6494 42.271 53.9201 41.9179C54.1791 41.5648 54.6146 41.3883 55.0853 41.3883C55.5561 41.3883 55.9916 41.5648 56.2506 41.9179C56.5213 42.271 56.6154 42.7654 56.6154 43.2479C56.6154 43.7305 56.5213 44.213 56.2506 44.5661ZM62.5261 40.5055C61.9612 40.5291 61.3609 40.7645 60.9254 41.1411C60.9843 40.6585 61.102 40.0936 61.5845 39.7523C62.0082 39.4463 62.7497 39.4227 63.4442 39.4463C63.8561 39.458 64.3975 39.5051 64.8801 39.564V38.0927C64.4681 38.0103 63.9856 37.9515 63.4442 37.9515C62.4673 37.9515 61.4904 38.0692 60.7371 38.5988C59.925 39.152 59.513 40.0818 59.3718 41.0234C59.2423 41.8826 59.2305 42.7183 59.2776 43.4715C59.3247 44.2719 59.513 44.9899 60.0544 45.6137C60.6076 46.2492 61.4315 46.6023 62.2789 46.6023C63.1381 46.6259 63.9503 46.3552 64.5623 45.7667C65.1037 45.2017 65.445 44.4367 65.4097 43.5892C65.4097 42.836 65.1626 42.0474 64.6918 41.4824C64.1739 40.8351 63.3735 40.5055 62.5261 40.5055ZM62.3496 41.9179C62.7615 41.9179 63.1499 42.0592 63.3853 42.3534C63.6325 42.6359 63.7266 43.0596 63.7266 43.4715C63.7266 43.8953 63.6325 44.3072 63.3853 44.5897C63.1499 44.8839 62.7615 45.0252 62.3496 45.0252C61.9376 45.0252 61.5492 44.8839 61.302 44.5897C61.0549 44.3072 60.9725 43.8953 60.9725 43.4715C60.9725 43.0596 61.0549 42.6359 61.302 42.3534C61.5492 42.0592 61.9376 41.9179 62.3496 41.9179ZM71.2807 42.6712C70.857 42.2593 70.2567 42.0945 69.7035 42.0945H68.3264V40.0701H65.7606V41.3059H66.7022V46.4258H69.7035C70.2567 46.4258 70.857 46.261 71.2807 45.8491C71.7044 45.4489 71.9162 44.8486 71.9162 44.2719C71.9162 43.6834 71.7044 43.0714 71.2807 42.6712ZM70.1037 44.7192C69.986 44.8486 69.8212 44.9192 69.6447 44.931H68.3264V43.6128H69.6447C69.833 43.6128 69.9978 43.6952 70.1155 43.8364C70.2214 43.9541 70.292 44.1071 70.292 44.2719C70.292 44.4367 70.2214 44.6015 70.1037 44.7192ZM75.072 40.0701C74.5189 40.0701 73.9186 40.2348 73.4949 40.6468C73.0712 41.047 72.8593 41.6472 72.8593 42.2239C72.8593 42.8124 73.0712 43.4245 73.4949 43.8246C73.6361 43.9659 73.8009 44.0718 73.9657 44.1542L72.8593 46.4258H74.6719L75.6488 44.4014H76.8022V46.4258H78.4265V40.0701H75.072ZM76.8022 42.8831H75.1309C74.9426 42.8831 74.7778 42.8007 74.6601 42.6594C74.5542 42.5417 74.4836 42.3887 74.4836 42.2239C74.4836 42.0592 74.5542 41.8944 74.6719 41.7767C74.7896 41.6472 74.9543 41.5766 75.1309 41.5648H76.8022V42.8831ZM80.0757 40.0936V46.4258H83.9362C84.2775 46.4258 84.7719 46.2375 85.0661 46.0138C85.5134 45.6607 85.7959 45.0958 85.7959 44.5308C85.7959 44.2484 85.7252 43.9541 85.5958 43.7069C85.4781 43.4598 85.3015 43.2479 85.0897 43.0831C85.1603 43.0008 85.2191 42.9066 85.278 42.8124C85.4074 42.5535 85.4663 42.271 85.4663 41.9768C85.4663 41.3647 85.2074 40.8704 84.7366 40.5055C84.3482 40.1995 83.8185 40.0701 83.2653 40.0701L80.0757 40.0936ZM81.6999 41.3177H83.2653C83.5007 41.3177 83.6302 41.3765 83.7597 41.5766C83.8421 41.7178 83.8421 41.8473 83.8538 41.9768C83.8656 42.1062 83.8421 42.2475 83.7597 42.3887C83.642 42.577 83.489 42.6477 83.2653 42.6477H81.6999V41.3177ZM81.6999 43.8717H83.6067C83.8421 43.8717 83.9715 43.9541 84.0892 44.1307C84.1716 44.2719 84.1834 44.4131 84.1834 44.5308C84.1834 44.6603 84.1716 44.8015 84.0892 44.9428C83.9715 45.1193 83.8067 45.2017 83.6067 45.2017H81.6999V43.8717ZM87.988 40.0701L87.4819 44.0012C87.3995 44.6485 87.3289 45.0134 86.505 45.0134V46.4258C87.9998 46.6847 88.706 45.9668 88.9178 44.3543L89.2944 41.4824H91.2012V46.4258H92.7077V40.0701H87.988ZM95.7311 43.6834H100.404C100.415 43.5422 100.427 43.3892 100.427 43.2479C100.427 42.4005 100.18 41.5884 99.6504 40.9528C99.062 40.2466 98.1557 39.8935 97.2141 39.8935C96.2725 39.8935 95.3662 40.2584 94.7777 40.9528C94.2481 41.5884 94.0245 42.3652 94.0009 43.2479C93.9774 44.0836 94.2363 44.8839 94.7777 45.543C95.3662 46.2492 96.2725 46.5552 97.2141 46.6023C98.1557 46.6494 99.0737 46.2845 99.7093 45.5784C99.8505 45.4136 99.98 45.237 100.086 45.0605L98.497 44.3661C98.4499 44.4249 98.4264 44.4955 98.3793 44.5661C98.1086 44.9192 97.6849 45.1076 97.2141 45.1076C96.7551 45.1076 96.3196 44.9192 96.0606 44.5661C95.8723 44.319 95.7782 44.013 95.7311 43.6834ZM97.2141 41.3883C97.6849 41.3883 98.1086 41.5648 98.3793 41.9297C98.4852 42.0827 98.5676 42.2593 98.6265 42.4476H95.8017C95.8606 42.2593 95.9429 42.0827 96.0606 41.9297C96.3196 41.5648 96.7551 41.3883 97.2141 41.3883ZM105.939 40.0701V42.3416H103.326V40.0701H101.725V46.4258H103.326V43.9423H105.939V46.4258H107.539V40.0701H105.939ZM115.045 40.0701H113.633L110.808 43.7658V40.0701H109.184V46.4258H110.596L113.421 42.6006V46.4258H115.045V40.0701ZM118.558 40.0701C118.005 40.0701 117.405 40.2348 116.981 40.6468C116.557 41.047 116.345 41.6472 116.345 42.2239C116.345 42.8124 116.557 43.4245 116.981 43.8246C117.122 43.9659 117.287 44.0718 117.452 44.1542L116.345 46.4258H118.158L119.135 44.4014H120.288V46.4258H121.912V40.0701H118.558ZM120.288 42.8831H118.617C118.429 42.8831 118.264 42.8007 118.146 42.6594C118.04 42.5417 117.97 42.3887 117.97 42.2239C117.97 42.0592 118.04 41.8944 118.158 41.7767C118.276 41.6472 118.44 41.5766 118.617 41.5648H120.288V42.8831Z" fill="white"/>
<path d="M154.139 43.6128V41.4942H152.515V43.6128H150.549L153.221 37.9515H151.561L148.89 43.6128V45.1076H152.515V46.4258H154.139V45.1076H154.892V43.6128H154.139ZM156.517 37.9515L156.258 42.3063L157.635 43.0949C157.682 43.0008 157.752 42.9066 157.835 42.8242C158.082 42.577 158.423 42.4358 158.765 42.4358C159.118 42.4358 159.459 42.577 159.706 42.8242C159.953 43.0714 160.095 43.4127 160.095 43.754C160.095 44.1071 159.953 44.4484 159.706 44.6956C159.459 44.931 159.118 45.0722 158.765 45.0722C158.423 45.0722 158.082 44.931 157.835 44.6838C157.67 44.5308 157.552 44.319 157.493 44.0953L155.952 44.5073C156.093 45.0016 156.364 45.4489 156.728 45.7902C157.27 46.3081 158.035 46.6023 158.765 46.5788C159.506 46.6023 160.259 46.3199 160.813 45.802C161.354 45.2841 161.695 44.5191 161.707 43.754C161.742 42.9772 161.472 42.2357 160.848 41.6708C160.33 41.2353 159.647 40.9999 159 40.9999C158.635 40.9999 158.2 41.094 157.823 41.2941L157.929 39.4463H160.966V37.9515H156.517ZM163.105 40.2113C163.116 40.5173 163.164 40.8704 163.317 41.2235C163.422 41.4589 163.587 41.6708 163.764 41.8708C163.47 42.1298 163.234 42.4593 163.093 42.8007C162.94 43.1773 162.881 43.5422 162.881 43.8835C162.881 44.6721 163.222 45.4489 163.823 45.9432C164.341 46.3787 165.106 46.6023 165.835 46.6023C166.541 46.6023 167.295 46.414 167.86 45.9432C168.484 45.4371 168.766 44.7074 168.801 43.8835C168.79 43.5422 168.742 43.1773 168.589 42.8007C168.448 42.4593 168.213 42.1298 167.919 41.8708C168.095 41.6708 168.248 41.4589 168.354 41.2235C168.519 40.8704 168.566 40.5173 168.566 40.2113C168.566 39.458 168.236 38.7401 167.636 38.3046C167.154 37.9279 166.506 37.7749 165.835 37.7749C165.211 37.7749 164.552 37.9162 164.046 38.3046C163.422 38.7518 163.14 39.4109 163.105 40.2113ZM164.8 40.2113C164.8 39.9288 164.882 39.6817 165.082 39.5169C165.27 39.3521 165.553 39.2815 165.835 39.2697C166.13 39.2815 166.412 39.3521 166.6 39.5169C166.789 39.6817 166.883 39.9288 166.871 40.2113C166.883 40.4938 166.789 40.7409 166.6 40.9057C166.412 41.0705 166.13 41.1411 165.835 41.1411C165.553 41.1411 165.27 41.0705 165.082 40.9057C164.882 40.7409 164.8 40.4938 164.8 40.2113ZM166.765 44.778C166.541 44.9899 166.188 45.0958 165.835 45.0958C165.482 45.0958 165.141 44.9899 164.905 44.778C164.67 44.5544 164.576 44.2248 164.576 43.8835C164.576 43.5304 164.67 43.2008 164.905 42.989C165.141 42.7654 165.482 42.6594 165.835 42.6594C166.188 42.6594 166.541 42.7654 166.765 42.989C167.001 43.2008 167.106 43.5304 167.106 43.8835C167.106 44.2248 167.001 44.5544 166.765 44.778ZM175.743 42.4476H173.542V40.2466H172.307V42.4476H170.094V43.6834H172.307V45.8961H173.542V43.6834H175.743V42.4476Z" fill="#009661"/>
<rect x="55.5537" y="346.504" width="88.9801" height="26.3645" rx="3.76636" fill="#009661"/>
<path d="M68.2651 357.682L69.3793 357.871C69.3872 357.682 69.4656 357.525 69.6226 357.423C69.7795 357.313 69.9992 357.266 70.2189 357.266C70.4386 357.266 70.6583 357.313 70.8152 357.423C70.98 357.525 71.0663 357.69 71.0663 357.886C71.0663 358.09 70.98 358.255 70.8152 358.357C70.6583 358.467 70.4386 358.506 70.2189 358.514H69.8658V359.534H70.2189C70.4778 359.534 70.7446 359.597 70.9329 359.738C71.137 359.871 71.2233 360.099 71.2233 360.342C71.2233 360.593 71.137 360.813 70.9329 360.954C70.7446 361.096 70.4778 361.15 70.2189 361.158C69.96 361.166 69.6932 361.096 69.5049 360.954C69.3244 360.829 69.2302 360.617 69.2224 360.389L68.1082 360.578C68.1709 361.088 68.4456 361.543 68.8771 361.817C69.2459 362.053 69.7324 362.155 70.2189 362.155C70.6819 362.155 71.1762 362.068 71.5685 361.817C72.0707 361.496 72.3532 360.946 72.3532 360.342C72.3532 360.091 72.3061 359.801 72.1649 359.534C72.0628 359.33 71.9138 359.134 71.7411 358.993C71.8353 358.898 71.9216 358.796 71.9922 358.671C72.1413 358.42 72.1962 358.13 72.1962 357.886C72.1962 357.313 71.8981 356.811 71.4037 356.529C71.0977 356.348 70.6112 356.27 70.2189 356.27C69.858 356.27 69.3636 356.34 69.0419 356.529C68.626 356.764 68.3279 357.164 68.2651 357.682ZM76.6502 362.037H77.7487L76.0224 356.388H74.4296L72.7033 362.037H73.8018L74.0686 361.158H76.3755L76.6502 362.037ZM74.3746 360.154L75.2142 357.392L76.0695 360.154H74.3746ZM82.107 356.388H78.4191V362.037H79.4862V357.455H82.107V356.388ZM87.2832 358.255C87.2754 357.863 87.142 357.463 86.9066 357.149C86.6791 356.827 86.3417 356.592 85.965 356.474C85.7845 356.419 85.5884 356.388 85.3922 356.388H82.8107V362.037H83.8778V360.115H85.3922C86.0121 360.115 86.577 359.817 86.9066 359.361C87.142 359.048 87.2911 358.647 87.2832 358.255ZM86.0278 358.773C85.863 358.993 85.5962 359.118 85.3844 359.118H83.8778V357.392H85.3844C85.6041 357.392 85.8473 357.525 85.9964 357.698C86.1298 357.847 86.1926 358.051 86.2004 358.255C86.2083 358.443 86.1376 358.624 86.0278 358.773ZM91.4522 356.388L90.0712 359.463L88.6824 356.388H87.5996L89.5612 360.57C89.5377 360.617 89.3493 360.986 89.1532 361.103C89.0747 361.15 88.9884 361.166 88.8864 361.166C88.8001 361.166 88.6118 361.111 88.5725 361.096L88.2273 362.037C88.4391 362.108 88.6431 362.155 88.8864 362.155C89.059 362.155 89.3886 362.092 89.5769 361.99C89.9457 361.786 90.134 361.48 90.3694 361.009L92.5507 356.388H91.4522ZM92.7832 357.682L93.8974 357.871C93.9053 357.682 93.9837 357.525 94.1407 357.423C94.2976 357.313 94.5173 357.266 94.737 357.266C94.9567 357.266 95.1764 357.313 95.3333 357.423C95.4981 357.525 95.5844 357.69 95.5844 357.886C95.5844 358.09 95.4981 358.255 95.3333 358.357C95.1764 358.467 94.9567 358.506 94.737 358.514H94.3839V359.534H94.737C94.9959 359.534 95.2627 359.597 95.451 359.738C95.655 359.871 95.7414 360.099 95.7414 360.342C95.7414 360.593 95.655 360.813 95.451 360.954C95.2627 361.096 94.9959 361.15 94.737 361.158C94.4781 361.166 94.2113 361.096 94.023 360.954C93.8425 360.829 93.7483 360.617 93.7405 360.389L92.6263 360.578C92.689 361.088 92.9637 361.543 93.3952 361.817C93.764 362.053 94.2505 362.155 94.737 362.155C95.1999 362.155 95.6943 362.068 96.0866 361.817C96.5888 361.496 96.8713 360.946 96.8713 360.342C96.8713 360.091 96.8242 359.801 96.6829 359.534C96.5809 359.33 96.4319 359.134 96.2592 358.993C96.3534 358.898 96.4397 358.796 96.5103 358.671C96.6594 358.42 96.7143 358.13 96.7143 357.886C96.7143 357.313 96.4162 356.811 95.9218 356.529C95.6158 356.348 95.1293 356.27 94.737 356.27C94.376 356.27 93.8817 356.34 93.56 356.529C93.1441 356.764 92.846 357.164 92.7832 357.682ZM101.49 356.388L98.8927 360.075V356.388H97.8099V362.037H98.7515L101.341 358.349V362.037H102.432V356.388H101.49ZM107.768 356.388H103.138V357.455H104.919V362.037H105.987V357.455H107.768V356.388ZM112.572 359.063C112.243 358.608 111.678 358.31 111.058 358.31H109.543V356.388H108.476V362.037H111.058C111.254 362.037 111.45 362.006 111.631 361.951C112.007 361.833 112.345 361.598 112.572 361.276C112.808 360.962 112.941 360.562 112.949 360.17C112.957 359.777 112.808 359.377 112.572 359.063ZM111.866 360.17C111.858 360.374 111.795 360.578 111.662 360.727C111.513 360.899 111.27 361.033 111.05 361.033H109.543V359.307H111.05C111.262 359.307 111.529 359.432 111.693 359.652C111.803 359.801 111.874 359.981 111.866 360.17ZM118.991 357.455V356.388H115.303V362.037H118.991V360.97H116.37V359.746H118.52V358.679H116.37V357.455H118.991ZM126.369 360.97V356.388H125.302V360.97H123.764V356.388H122.697V360.97H121.159V356.388H120.092V362.037H126.016V362.743H127.083V360.97H126.369ZM131.71 357.455V356.388H128.022V362.037H131.71V360.97H129.089V359.746H131.239V358.679H129.089V357.455H131.71Z" fill="white"/>
</g>
<mask id="path-28-inside-1_984_9007" fill="white">
<path fill-rule="evenodd" clip-rule="evenodd" d="M13.3092 18.0692C11.7698 21.0904 11.7698 25.0455 11.7698 32.9556V370.158C11.7698 378.068 11.7698 382.023 13.3092 385.044C14.6633 387.702 16.824 389.862 19.4815 391.216C22.5028 392.756 26.4578 392.756 34.3679 392.756H165.72C173.63 392.756 177.585 392.756 180.606 391.216C183.263 389.862 185.424 387.702 186.778 385.044C188.318 382.023 188.318 378.068 188.318 370.158V32.9556C188.318 25.0455 188.318 21.0904 186.778 18.0692C185.424 15.4116 183.263 13.2509 180.606 11.8968C177.585 10.3574 173.63 10.3574 165.72 10.3574H34.3679C26.4578 10.3574 22.5028 10.3574 19.4815 11.8968C16.824 13.2509 14.6633 15.4116 13.3092 18.0692ZM53.5264 12.5551V13.2877C53.5264 11.8226 52.0613 10.3574 50.5961 10.3574H53.5264V12.5551ZM146.563 16.7629V10.3574H53.5274V16.7629C53.5274 20.5078 56.5632 23.5436 60.308 23.5436H139.782C143.527 23.5436 146.563 20.5078 146.563 16.7629ZM149.127 10.3574C147.662 10.3574 146.563 11.4563 146.563 12.9214V10.3574H149.127Z"/>
</mask>
<path d="M13.3092 18.0692L13.0994 17.9623L13.3092 18.0692ZM13.3092 385.044L13.5189 384.937H13.5189L13.3092 385.044ZM19.4815 391.216L19.3747 391.426L19.4815 391.216ZM180.606 391.216L180.713 391.426L180.606 391.216ZM186.778 385.044L186.988 385.151L186.778 385.044ZM186.778 18.0692L186.988 17.9623V17.9623L186.778 18.0692ZM180.606 11.8968L180.713 11.6871V11.6871L180.606 11.8968ZM19.4815 11.8968L19.3747 11.6871L19.4815 11.8968ZM53.5264 10.3574H53.7618V10.122H53.5264V10.3574ZM146.563 10.3574H146.798V10.1221H146.563V10.3574ZM53.5274 10.3574V10.1221H53.292V10.3574H53.5274ZM146.563 10.3574V10.1221H146.328V10.3574H146.563ZM12.0052 32.9556C12.0052 28.9966 12.0054 26.0416 12.1968 23.6982C12.3881 21.3576 12.7689 19.6479 13.5189 18.176L13.0994 17.9623C12.31 19.5116 11.9212 21.2901 11.7276 23.6599C11.5342 26.0269 11.5344 29.0044 11.5344 32.9556H12.0052ZM12.0052 370.158V32.9556H11.5344V370.158H12.0052ZM13.5189 384.937C12.7689 383.465 12.3881 381.756 12.1968 379.415C12.0054 377.072 12.0052 374.117 12.0052 370.158H11.5344C11.5344 374.109 11.5342 377.086 11.7276 379.453C11.9212 381.823 12.31 383.602 13.0994 385.151L13.5189 384.937ZM19.5884 391.007C16.9751 389.675 14.8505 387.55 13.5189 384.937L13.0994 385.151C14.4761 387.853 16.6728 390.049 19.3747 391.426L19.5884 391.007ZM34.3679 392.52C30.409 392.52 27.4539 392.52 25.1106 392.329C22.7699 392.137 21.0603 391.757 19.5884 391.007L19.3747 391.426C20.924 392.216 22.7025 392.604 25.0722 392.798C27.4392 392.991 30.4167 392.991 34.3679 392.991V392.52ZM165.72 392.52H34.3679V392.991H165.72V392.52ZM180.499 391.007C179.027 391.757 177.317 392.137 174.977 392.329C172.633 392.52 169.678 392.52 165.72 392.52V392.991C169.671 392.991 172.648 392.991 175.015 392.798C177.385 392.604 179.163 392.216 180.713 391.426L180.499 391.007ZM186.569 384.937C185.237 387.55 183.112 389.675 180.499 391.007L180.713 391.426C183.415 390.049 185.611 387.853 186.988 385.151L186.569 384.937ZM188.082 370.158C188.082 374.117 188.082 377.072 187.891 379.415C187.699 381.756 187.319 383.465 186.569 384.937L186.988 385.151C187.777 383.602 188.166 381.823 188.36 379.453C188.553 377.086 188.553 374.109 188.553 370.158H188.082ZM188.082 32.9556V370.158H188.553V32.9556H188.082ZM186.569 18.176C187.319 19.6479 187.699 21.3576 187.891 23.6982C188.082 26.0416 188.082 28.9966 188.082 32.9556H188.553C188.553 29.0044 188.553 26.0269 188.36 23.6599C188.166 21.2901 187.777 19.5116 186.988 17.9623L186.569 18.176ZM180.499 12.1066C183.112 13.4381 185.237 15.5628 186.569 18.176L186.988 17.9623C185.611 15.2604 183.415 13.0638 180.713 11.6871L180.499 12.1066ZM165.72 10.5928C169.678 10.5928 172.633 10.593 174.977 10.7845C177.317 10.9757 179.027 11.3566 180.499 12.1066L180.713 11.6871C179.163 10.8977 177.385 10.5088 175.015 10.3152C172.648 10.1218 169.671 10.122 165.72 10.122V10.5928ZM34.3679 10.5928H165.72V10.122H34.3679V10.5928ZM19.5884 12.1066C21.0603 11.3566 22.7699 10.9757 25.1106 10.7845C27.4539 10.593 30.409 10.5928 34.3679 10.5928V10.122C30.4167 10.122 27.4392 10.1218 25.0722 10.3152C22.7025 10.5088 20.924 10.8977 19.3747 11.6871L19.5884 12.1066ZM13.5189 18.176C14.8505 15.5628 16.9751 13.4381 19.5884 12.1066L19.3747 11.6871C16.6728 13.0638 14.4761 15.2604 13.0994 17.9623L13.5189 18.176ZM53.7618 13.2877V12.5551H53.291V13.2877H53.7618ZM50.5961 10.5928C51.2521 10.5928 51.9278 10.9232 52.4442 11.4396C52.9606 11.956 53.291 12.6317 53.291 13.2877H53.7618C53.7618 12.4786 53.3596 11.6891 52.7771 11.1067C52.1947 10.5242 51.4052 10.122 50.5961 10.122V10.5928ZM53.5264 10.122H50.5961V10.5928H53.5264V10.122ZM53.7618 12.5551V10.3574H53.291V12.5551H53.7618ZM146.328 10.3574V16.7629H146.798V10.3574H146.328ZM53.5274 10.5928H146.563V10.1221H53.5274V10.5928ZM53.7628 16.7629V10.3574H53.292V16.7629H53.7628ZM60.308 23.3082C56.6932 23.3082 53.7628 20.3778 53.7628 16.7629H53.292C53.292 20.6378 56.4332 23.779 60.308 23.779V23.3082ZM139.782 23.3082H60.308V23.779H139.782V23.3082ZM146.328 16.7629C146.328 20.3778 143.397 23.3082 139.782 23.3082V23.779C143.657 23.779 146.798 20.6378 146.798 16.7629H146.328ZM146.798 12.9214C146.798 11.5863 147.792 10.5928 149.127 10.5928V10.1221C147.532 10.1221 146.328 11.3263 146.328 12.9214H146.798ZM146.328 10.3574V12.9214H146.798V10.3574H146.328ZM149.127 10.1221H146.563V10.5928H149.127V10.1221Z" fill="#1E1E20" style="mix-blend-mode:overlay" mask="url(#path-28-inside-1_984_9007)"/>
<path fill-rule="evenodd" clip-rule="evenodd" d="M50.5961 10.3574C52.0612 10.3574 53.5263 11.8225 53.5263 13.2877V12.5551V10.3574H50.5961ZM53.5273 10.3574H146.563V16.7629C146.563 20.5078 143.527 23.5436 139.782 23.5436H60.308C56.5631 23.5436 53.5273 20.5078 53.5273 16.7629V10.3574ZM149.127 10.3574H146.563V12.9214C146.563 11.4563 147.662 10.3574 149.127 10.3574Z" fill="#1E1E20"/>
<circle cx="2.82477" cy="2.82477" r="2.82477" transform="matrix(-1 0 0 1 118.169 12.2402)" fill="#333333"/>
<rect x="81.918" y="13.1816" width="23.5397" height="3.76636" rx="1.88318" fill="#333333"/>
</g>
<rect x="8.00342" y="6.59107" width="184.081" height="389.818" rx="22.5981" stroke="#1E1E20" stroke-width="7.53271"/>
<defs>
<linearGradient id="paint0_linear_984_9007" x1="98.3959" y1="297.07" x2="98.3959" y2="378.989" gradientUnits="userSpaceOnUse">
<stop stop-color="#141416" stop-opacity="0"/>
<stop offset="1" stop-color="#141416"/>
</linearGradient>
<clipPath id="clip0_984_9007">
<rect x="11.7698" y="10.3574" width="176.548" height="382.285" rx="18.8318" fill="white"/>
</clipPath>
<clipPath id="clip1_984_9007">
<rect width="176.548" height="382.285" fill="white" transform="translate(11.7698 10.3574)"/>
</clipPath>
</defs>
</svg>
